# xmcd CD database file
#
# Track frame offsets:
#	150
#	19420
#	53630
#	68200
#	82782
#	97200
#	115747
#	129275
#	144187
#	156310
#	171780
#	194172
#	212417
#	227542
#	242935
#	257287
#
# Disc length: 3622 seconds
#
# Revision: 0
# Processed by: cddbd v1.5.1PL2 Copyright (c) Steve Scherf et al.
# Submitted via: CD2WAV32(JP) R3.22
#
DISCID=d40e2410
DTITLE=K.C. and THE SUNSHINE BAND - KC AND THE SUNSHINE BAND
DYEAR=1999
DGENRE=Pop
TTITLE0=GIVE IT UP
TTITLE1=(YOU SAID) YOU'D GIMME SOME MORE
TTITLE2=THAT'S THE WAY I LIKE IT
TTITLE3=GET DOWN TONIGHT
TTITLE4=(SHAKE, SHAKE, SHAKE) YOUR BOOTY
TTITLE5=I'M YOUR BOOGIE MAN
TTITLE6=I LIKE TO DO IT
TTITLE7=ARE YOU READY
TTITLE8=DON'T BREAK MY HEART
TTITLE9=UP TIGHT
TTITLE10=THANK YOU (FALLETTINME BE MICE ELF AGIN)
TTITLE11=PARTY WITH YOUR BODY
TTITLE12=DON'T RUN (COME BACK TO ME)
TTITLE13=YOU'RE GOING OUT OF MY MIND
TTITLE14=IT'S TOO HARD TO SAY GOODBYE
TTITLE15=ARE YOU FEELING LIKE ME
EXTD=
EXTT0=
EXTT1=
EXTT2=
EXTT3=
EXTT4=
EXTT5=
EXTT6=
EXTT7=
EXTT8=
EXTT9=
EXTT10=
EXTT11=
EXTT12=
EXTT13=
EXTT14=
EXTT15=
PLAYORDER=
